<svg width="18" height="20" viewBox="0 0 18 20" fill="none" xmlns="http://www.w3.org/2000/svg">
<path fill-rule="evenodd" clip-rule="evenodd" d="M4.57266 1.5C2.91466 1.5 1.53966 2.842 1.50066 4.497V15.328C1.47166 16.975 2.77866 18.327 4.41366 18.355L4.56066 18.354H12.5727C14.2147 18.336 15.5537 16.979 15.5517 15.329V6.33L10.9177 1.5H4.58466H4.57266ZM4.39966 19.855C1.92666 19.812 -0.0413401 17.775 0.000659935 15.315V4.479C0.0576599 1.998 2.10666 0 4.56966 0H4.58766H11.2367C11.4407 0 11.6357 0.083 11.7777 0.23L16.8437 5.509C16.9767 5.648 17.0517 5.835 17.0517 6.028V15.328C17.0557 17.797 15.0497 19.828 12.5807 19.854L4.39966 19.855Z" fill="#7D8180"/>
<path d="M11.5974 9.46436L7.52629 13.5355L5.67578 11.685" stroke="#7D8180" stroke-width="0.97707" stroke-linecap="round" stroke-linejoin="round"/>
<path fill-rule="evenodd" clip-rule="evenodd" d="M16.2957 6.98449H13.5417C11.7107 6.97949 10.2227 5.48749 10.2227 3.65949V0.750488C10.2227 0.336488 10.5587 0.000488281 10.9727 0.000488281C11.3867 0.000488281 11.7227 0.336488 11.7227 0.750488V3.65949C11.7227 4.66349 12.5397 5.48149 13.5437 5.48449H16.2957C16.7097 5.48449 17.0457 5.82049 17.0457 6.23449C17.0457 6.64849 16.7097 6.98449 16.2957 6.98449Z" fill="#7D8180"/>
</svg>
